HIERARCHY
ROOT Hips
{
	OFFSET 0.00000 0.00000 0.00000
	CHANNELS 6 Xposition Yposition Zposition Zrotation Yrotation Xrotation 
	JOINT LHipJoint
	{
		OFFSET 0 0 0
		CHANNELS 3 Zrotation Yrotation Xrotation
		JOINT LeftHip
		{
			OFFSET 1.58161 -1.81893 0.78828
			CHANNELS 3 Zrotation Yrotation Xrotation
			JOINT LeftKnee
			{
				OFFSET 2.53374 -6.96141 0.00000
				CHANNELS 3 Zrotation Yrotation Xrotation
				JOINT LeftAnkle
				{
					OFFSET 2.63509 -7.23986 0.00000
					CHANNELS 3 Zrotation Yrotation Xrotation
					JOINT LeftToe
					{
						OFFSET 0.14115 -0.38781 2.05350
						CHANNELS 3 Zrotation Yrotation Xrotation
						End Site
						{
							OFFSET 0.00000 -0.00000 1.05543
						}
					}
				}
			}
		}
	}
	JOINT RHipJoint
	{
		OFFSET 0 0 0
		CHANNELS 3 Zrotation Yrotation Xrotation
		JOINT RightHip
		{
			OFFSET -1.11138 -1.81893 0.78828
			CHANNELS 3 Zrotation Yrotation Xrotation
			JOINT RightKnee
			{
				OFFSET -2.58392 -7.09926 0.00000
				CHANNELS 3 Zrotation Yrotation Xrotation
				JOINT RightAnkle
				{
					OFFSET -2.66423 -7.31992 0.00000
					CHANNELS 3 Zrotation Yrotation Xrotation
					JOINT RightToe
					{
						OFFSET -0.18831 -0.51739 2.12114
						CHANNELS 3 Zrotation Yrotation Xrotation
						End Site
						{
							OFFSET -0.00000 -0.00000 1.09845
						}
					}
				}
			}
		}
	}
	JOINT lowerback
	{
		OFFSET 0 0 0
		CHANNELS 3 Zrotation Yrotation Xrotation
		JOINT Chest
		{
			OFFSET -0.01511 1.97958 -0.08829
			CHANNELS 3 Zrotation Yrotation Xrotation
			JOINT Chest2
			{
				OFFSET 0.08344 1.97334 -0.04330
				CHANNELS 3 Zrotation Yrotation Xrotation
				JOINT lowerneck
				{
					OFFSET 0 0 0
					CHANNELS 3 Zrotation Yrotation Xrotation
					JOINT Neck
					{
						OFFSET 0.00559 1.76246 0.31246
						CHANNELS 3 Zrotation Yrotation Xrotation
						JOINT Head
						{
							OFFSET -0.07011 1.80354 -0.30524
							CHANNELS 3 Zrotation Yrotation Xrotation
							End Site
							{
								OFFSET -0.02385 1.83547 -0.13906
							}
						}
					}
				}
				JOINT LeftCollar
				{
					OFFSET 0 0 0
					CHANNELS 3 Zrotation Yrotation Xrotation
					JOINT LeftShoulder
					{
						OFFSET 3.20667 1.30156 -0.60240
CHANNELS 3 Zrotation Xrotation Yrotation
						JOINT LeftElbow
						{
OFFSET 0 -4.956630 0.000000
CHANNELS 3 Zrotation Xrotation Yrotation
							JOINT LeftWrist
							{
OFFSET 0 -3.381770 0.000000
CHANNELS 3 Zrotation Xrotation Yrotation
								JOINT lhand
								{
									OFFSET 0 0 0
CHANNELS 3 Zrotation Xrotation Yrotation
									JOINT LFingers
									{
OFFSET 0 -0.662910 0.000000
CHANNELS 3 Zrotation Xrotation Yrotation
										End Site
										{
OFFSET 0 -0.534450 0.000000
										}
									}
								}
								JOINT LThumb
								{
OFFSET 0 0.000000 0.000000
CHANNELS 3 Zrotation Xrotation Yrotation
									End Site
									{
OFFSET 0 -0.542610 0.542610
									}
								}
							}
						}
					}
				}
				JOINT RightCollar
				{
					OFFSET 0 0 0
					CHANNELS 3 Zrotation Yrotation Xrotation
					JOINT RightShoulder
					{
						OFFSET -3.06877 1.34672 -0.60964
CHANNELS 3 Zrotation Xrotation Yrotation
						JOINT RightElbow
						{
OFFSET 0 -5.083650 0.000000
CHANNELS 3 Zrotation Xrotation Yrotation
							JOINT RightWrist
							{
OFFSET 0 -3.359840 0.000000
CHANNELS 3 Zrotation Xrotation Yrotation
								JOINT rhand
								{
									OFFSET 0 0 0
CHANNELS 3 Zrotation Xrotation Yrotation
									JOINT RFingers
									{
OFFSET 0 -0.820760 0.000000
CHANNELS 3 Zrotation Xrotation Yrotation
										End Site
										{
OFFSET 0 -0.661720 0.000000
										}
									}
								}
								JOINT RThumb
								{
OFFSET 0 0.000000 0.000000
CHANNELS 3 Zrotation Xrotation Yrotation
									End Site
									{
OFFSET 0 -0.671820 0.671820
									}
								}
							}
						}
					}
				}
			}
		}
	}
}
MOTION
Frames: 4
Frame Time: 0.008333333333333333
-6.551400 17.767700 0.227500 -68.984900 85.526100 -51.529700 0.000000 0.000000 0.000000 -6.442500 -0.829500 -32.384600 2.888700 10.512600 30.653200 0.454000 -2.795600 -12.073800 1.543000 -7.841200 -22.232900 0.000000 0.000000 0.000000 10.763300 7.747900 -31.172700 -2.400000 -9.653700 27.862600 0.077100 -8.329900 -10.189100 -0.983200 6.311700 -17.691400 -1.357300 1.884300 2.841400 3.856600 2.547400 3.420000 4.705600 1.243200 1.692800 2.498800 -1.296400 -16.283900 -4.095400 0.613600 39.292000 -2.022000 0.570400 17.058000 -0.000000 -0.000000 0.000000 -14.329700 -20.877400 -82.331700 13.663500 -22.251700 2.699400 26.291800 -19.440700 -60.690400 0.000000 0.000000 0.000000 -7.125000 0.000000 0.000000 170.442900 3.580800 -9.070800 -0.000000 -0.000000 0.000000 13.206600 -25.291200 36.247800 -9.777200 -16.390300 -1.411400 -15.692900 -23.284600 7.399600 0.000000 0.000000 0.000000 7.125000 0.000000 -0.000000 9.460600 37.509900 1.763100
-6.550649 17.770893 0.227250 -69.010004 85.513642 -51.553302 0.000000 0.000000 0.000000 -6.433735 -0.811470 -32.364629 2.879560 10.497387 30.602991 0.451746 -2.826088 -12.039931 1.507629 -7.754493 -21.971151 0.000000 0.000000 0.000000 10.748964 7.792975 -31.148597 -2.396557 -9.647314 27.842003 0.070840 -8.279128 -10.257464 -0.891672 6.013954 -16.826333 -1.415334 1.876349 2.832886 3.912506 2.536632 3.424695 4.797628 1.236376 1.698810 2.479205 -1.294897 -16.270377 -4.147675 0.639769 39.255940 -2.036274 0.569711 17.036527 0.000000 0.000000 0.000000 -14.409959 -20.899249 -82.265465 13.643529 -22.222839 2.691825 26.360978 -19.351113 -60.650271 0.000000 0.000000 0.000000 -7.125000 0.000000 0.000000 170.475079 3.554944 -9.043943 0.000000 0.000000 0.000000 13.124714 -25.287006 36.360050 -9.775697 -16.387921 -1.410962 -15.702541 -23.456887 7.354901 0.000000 0.000000 0.000000 7.125000 0.000000 0.000000 9.445262 37.464825 1.770738
-6.550074 17.773153 0.227050 -69.076300 85.499999 -51.621447 0.000000 0.000000 0.000000 -6.420030 -0.798734 -32.349650 2.873697 10.487645 30.570807 0.449795 -2.852241 -12.010499 1.480752 -7.688432 -21.771769 0.000000 0.000000 0.000000 10.726334 7.854461 -31.110000 -2.392710 -9.640147 27.818986 0.061806 -8.218348 -10.373573 -0.774508 5.603726 -15.642755 -1.452874 1.874600 2.833951 3.955832 2.534385 3.427651 4.864272 1.234443 1.698190 2.471105 -1.291429 -16.261014 -4.192135 0.662534 39.225653 -2.049867 0.570686 17.019062 0.000000 0.000000 0.000000 -14.459639 -20.917266 -82.265125 13.632306 -22.206608 2.687552 26.471775 -19.255779 -60.664794 0.000000 0.000000 0.000000 -7.125000 0.000000 0.000000 170.504358 3.588203 -9.009447 0.000000 0.000000 0.000000 13.066296 -25.285231 36.398362 -9.772128 -16.382315 -1.409969 -15.701796 -23.558061 7.306092 0.000000 0.000000 0.000000 7.125000 0.000000 0.000000 9.437991 37.414884 1.781048
-6.549761 17.774029 0.226924 -69.203699 85.484598 -51.755671 0.000000 0.000000 0.000000 -6.398995 -0.793851 -32.342075 2.872695 10.486017 30.565360 0.448292 -2.871961 -11.987648 1.466479 -7.652998 -21.664903 0.000000 0.000000 0.000000 10.691400 7.940292 -31.049899 -2.388265 -9.631821 27.792379 0.048659 -8.142722 -10.560510 -0.619312 5.026640 -13.986682 -1.460011 1.882050 2.849226 3.980498 2.544777 3.428027 4.893257 1.239764 1.687735 2.480057 -1.285043 -16.257822 -4.225002 0.680251 39.203929 -2.062450 0.574130 17.007542 0.000000 0.000000 0.000000 -14.463959 -20.929599 -82.362537 13.634059 -22.209113 2.688178 26.644313 -19.151918 -60.760390 0.000000 0.000000 0.000000 -7.125000 0.000000 0.000000 170.529337 3.709155 -8.963621 0.000000 0.000000 0.000000 13.042694 -25.287047 36.326993 -9.765492 -16.371923 -1.408153 -15.685644 -23.553741 7.251188 0.000000 0.000000 0.000000 7.125000 0.000000 0.000000 9.442686 37.357727 1.795321
